<?xml version="1.0" standalone="no"?>
<!DOCTYPE svg PUBLIC "-//W3C//DTD SVG 20010904//EN"
 "http://www.w3.org/TR/2001/REC-SVG-20010904/DTD/svg10.dtd">
<svg version="1.0" xmlns="http://www.w3.org/2000/svg"
 width="1800.000000pt" height="834.000000pt" viewBox="0 0 1800.000000 834.000000"
 preserveAspectRatio="xMidYMid meet">
<g transform="translate(0.000000,834.000000) scale(0.100000,-0.100000)"
fill="#000000" stroke="none">
<path d="M3455 8331 c34 -13 -31 -20 -295 -31 -134 -5 -278 -14 -320 -19 -77
-11 -274 -35 -415 -51 -44 -5 -123 -16 -175 -25 -52 -9 -135 -22 -185 -30 -87
-15 -166 -29 -317 -59 -40 -8 -97 -19 -127 -25 -101 -19 -363 -84 -631 -157
-30 -9 -75 -20 -100 -26 -25 -5 -49 -14 -54 -19 -6 -5 -18 -9 -28 -9 -10 0
-71 -18 -135 -41 -65 -22 -136 -46 -158 -51 -22 -6 -44 -14 -50 -18 -5 -4 -26
-11 -45 -15 -19 -4 -41 -11 -50 -16 -8 -4 -64 -25 -125 -45 -178 -60 -189 -64
-215 -84 l-25 -19 0 -1628 c0 -1607 5 -1930 34 -2054 6 -24 20 -96 31 -159 12
-63 25 -128 30 -145 5 -16 16 -59 25 -95 24 -98 55 -203 66 -222 5 -10 9 -26
9 -35 0 -10 6 -30 14 -45 8 -15 17 -40 21 -57 4 -17 11 -33 16 -36 5 -4 9 -13
9 -21 0 -8 9 -36 21 -62 11 -26 33 -74 47 -107 15 -33 54 -114 88 -180 54
-106 76 -148 121 -220 7 -11 24 -40 39 -65 70 -117 228 -345 304 -440 20 -25
62 -76 92 -115 31 -38 65 -79 75 -90 10 -11 59 -67 110 -125 50 -58 116 -127
146 -155 30 -27 103 -97 163 -154 60 -57 140 -131 179 -164 38 -33 83 -71 99
-85 139 -120 674 -499 891 -631 39 -23 77 -46 85 -51 41 -26 171 -100 175
-100 3 0 24 -12 47 -27 23 -14 112 -62 198 -106 85 -44 171 -90 190 -101 94
-57 247 -120 256 -105 3 5 13 9 23 9 17 0 125 52 241 117 30 17 84 46 120 65
36 20 118 67 183 107 65 39 120 71 123 71 4 0 261 154 394 238 42 26 103 66
135 89 33 24 68 48 79 55 84 58 394 300 522 408 12 10 52 42 90 71 38 30 74
58 80 64 7 5 39 33 72 60 133 111 365 356 567 600 27 33 54 65 60 72 5 7 15
18 21 25 83 102 354 548 438 720 31 64 56 119 56 123 0 5 24 63 50 120 12 25
32 82 77 220 20 61 39 119 44 130 4 11 17 58 28 105 18 76 30 128 61 280 5 25
14 92 20 150 7 57 13 107 15 110 16 25 26 820 26 2065 0 798 0 1471 -1 1496 0
45 0 46 -52 69 -101 44 -116 50 -130 50 -8 0 -18 4 -23 9 -6 4 -32 15 -60 23
-27 9 -124 39 -215 67 -326 103 -320 101 -500 151 -41 11 -90 25 -108 31 -36
11 -242 65 -307 79 -22 5 -69 16 -105 25 -89 21 -277 59 -455 91 -170 31 -401
63 -595 84 -58 6 -145 15 -195 21 -49 5 -211 14 -360 19 -298 11 -366 17 -344
31 9 5 -31 8 -106 8 -68 0 -111 -4 -100 -8z m770 -385 c116 -9 221 -18 235
-21 14 -3 75 -10 135 -15 61 -6 153 -17 205 -24 191 -27 256 -37 300 -46 25
-5 97 -19 160 -30 117 -21 260 -52 360 -76 30 -8 82 -20 115 -28 70 -17 236
-62 385 -104 131 -37 521 -167 576 -192 23 -10 44 -25 47 -33 11 -28 9 -3248
-2 -3342 -21 -184 -46 -308 -116 -570 -17 -64 -63 -206 -74 -225 -5 -9 -12
-30 -15 -48 -4 -17 -12 -34 -17 -37 -5 -4 -9 -14 -9 -23 0 -9 -7 -30 -16 -47
-9 -16 -27 -57 -41 -90 -25 -62 -112 -235 -156 -315 -14 -25 -35 -63 -47 -85
-22 -40 -135 -211 -194 -292 -54 -76 -244 -304 -339 -408 -80 -87 -219 -221
-313 -302 -16 -14 -60 -53 -99 -87 -225 -203 -630 -500 -949 -696 -48 -30
-100 -63 -115 -72 -14 -10 -35 -22 -46 -28 -11 -5 -27 -14 -35 -20 -34 -23
-171 -100 -177 -100 -4 0 -14 -6 -22 -14 -9 -7 -88 -50 -176 -96 -88 -45 -164
-86 -170 -91 -28 -26 -72 -9 -335 134 -30 16 -84 45 -120 65 -36 19 -69 38
-75 42 -5 4 -53 31 -105 60 -297 164 -679 427 -1043 717 -133 106 -472 429
-591 563 -81 92 -479 629 -533 720 -49 82 -146 268 -176 340 -9 19 -24 55 -35
80 -40 94 -118 312 -138 390 -20 72 -44 177 -50 215 -60 367 -63 476 -59 2136
1 812 6 1486 9 1496 6 20 31 35 96 60 53 20 498 168 560 187 226 66 309 89
405 111 33 7 89 21 125 29 103 26 188 45 280 62 47 8 121 22 165 30 94 18 239
41 345 54 41 5 102 14 135 19 93 16 240 30 485 46 124 8 234 17 245 19 50 10
827 -3 1020 -18z"/>
<path d="M3791 7440 c-110 -75 -145 -102 -286 -220 -234 -196 -544 -545 -664
-745 -61 -104 -65 -107 -201 -178 -323 -167 -701 -420 -960 -642 -140 -120
-310 -286 -310 -304 0 -7 3 -11 8 -9 257 131 387 182 622 248 131 36 282 70
315 70 32 0 12 -30 -67 -101 -474 -423 -792 -844 -992 -1314 -21 -49 -42 -99
-47 -110 -22 -47 -72 -193 -76 -220 -3 -16 -9 -35 -14 -40 -4 -6 -13 -40 -19
-75 -7 -36 -16 -89 -21 -119 -14 -78 -4 -95 26 -43 42 75 110 155 223 264 121
117 212 184 237 175 17 -7 20 -33 5 -42 -17 -10 -70 -121 -90 -188 -67 -222
-78 -557 -24 -782 39 -164 107 -338 176 -453 21 -34 38 -64 38 -67 0 -2 14
-26 32 -52 131 -197 321 -398 513 -542 198 -149 327 -232 340 -219 4 4 -24 49
-62 100 -235 314 -389 644 -477 1018 -34 147 -46 224 -62 395 -28 310 4 580
104 860 29 81 116 261 137 285 8 9 15 20 15 24 0 4 32 50 70 101 166 220 428
408 698 501 39 13 55 15 63 7 9 -9 -3 -26 -48 -70 -32 -32 -73 -76 -89 -98
-49 -64 -124 -174 -124 -182 0 -3 -6 -14 -14 -22 -46 -52 -138 -263 -181 -416
-9 -33 -23 -81 -31 -108 -18 -56 -12 -72 19 -56 12 7 24 15 27 18 3 3 32 25
66 48 211 146 531 240 877 260 140 7 152 -3 58 -52 -81 -43 -225 -173 -299
-269 -25 -34 -49 -63 -52 -66 -15 -12 -100 -150 -119 -192 -30 -68 -25 -104
10 -62 23 28 158 134 227 178 58 38 101 62 212 122 38 21 228 95 285 111 223
65 308 77 550 78 292 0 506 -27 785 -101 107 -28 262 -76 275 -85 6 -4 26 -12
45 -17 19 -6 60 -20 90 -31 89 -34 112 -28 227 58 76 56 280 262 347 349 68
89 126 192 126 224 0 30 -24 51 -160 141 -47 31 -143 97 -215 146 -71 49 -200
137 -285 195 -350 238 -365 249 -392 302 -77 152 -216 378 -270 442 -99 116
-196 205 -274 253 -45 27 -84 49 -87 49 -3 0 -34 13 -69 29 -35 16 -85 36
-113 46 -27 9 -59 21 -70 25 -41 16 -180 60 -305 97 -30 9 -66 19 -80 24 -14
4 -38 10 -55 14 -16 3 -38 8 -47 11 -14 4 -24 -8 -45 -52 -28 -58 -55 -85 -70
-70 -12 11 -6 326 6 388 6 29 15 82 20 118 9 65 28 168 56 310 46 229 73 389
67 395 -12 12 -32 1 -131 -65z m584 -1785 c103 -8 282 -44 380 -76 78 -25 80
-27 160 -143 33 -49 66 -94 73 -101 6 -8 12 -18 12 -24 0 -13 -70 -14 -125 -1
-22 5 -83 12 -135 16 -81 6 -102 11 -145 38 -27 16 -51 34 -53 38 -2 4 -8 8
-12 8 -5 0 -52 29 -105 65 -52 36 -98 65 -101 65 -3 0 -20 11 -37 24 -41 30
-120 66 -146 66 -31 0 -25 28 7 32 29 4 146 0 227 -7z"/>
<path d="M4459 7312 c-81 -53 -244 -205 -312 -292 -29 -36 -54 -67 -57 -70 -9
-7 -103 -169 -117 -200 -48 -106 -73 -171 -73 -190 0 -13 15 -19 73 -28 39 -6
99 -18 132 -26 150 -37 153 -38 174 -26 16 8 21 21 22 53 0 58 8 97 63 312 8
33 26 96 41 140 14 44 33 105 42 135 9 30 19 64 24 75 10 27 39 122 39 129 0
11 -25 5 -51 -12z"/>
<path d="M4028 3861 c-31 -9 -60 -19 -64 -23 -4 -5 -15 -8 -24 -8 -18 0 -70
-21 -175 -69 -133 -62 -318 -191 -414 -291 -115 -119 -241 -289 -294 -400
-142 -297 -180 -573 -127 -920 6 -41 16 -82 21 -92 5 -9 9 -24 9 -33 0 -18 13
-50 61 -153 109 -235 355 -496 584 -622 33 -18 77 -44 97 -57 21 -12 44 -23
53 -23 16 0 21 25 6 34 -17 11 -172 307 -221 421 -36 84 -37 89 -53 135 -30
89 -46 156 -58 250 -17 128 -23 290 -11 302 6 6 19 -7 35 -34 39 -66 144 -169
227 -225 71 -48 198 -113 220 -113 12 0 13 27 2 32 -16 6 -120 154 -154 218
-120 227 -169 502 -138 775 15 124 46 250 86 342 8 17 14 34 14 38 0 14 90
186 124 239 40 60 137 162 231 243 66 57 61 62 -37 34z"/>
<path d="M8477 5750 c-311 -49 -563 -328 -598 -661 -10 -104 1 -251 27 -329
56 -174 201 -359 335 -429 21 -11 46 -24 56 -30 41 -23 91 -41 138 -52 314
-69 625 79 783 373 53 97 100 274 91 338 l-4 25 -350 0 -350 0 0 -75 0 -75
255 -5 255 -5 -3 -35 c-7 -83 -139 -253 -246 -315 -132 -77 -303 -98 -434 -54
-103 35 -207 110 -275 201 -71 94 -127 259 -127 378 0 69 28 188 63 263 112
245 377 383 616 321 103 -26 193 -76 267 -149 27 -26 101 -135 118 -173 l19
-42 84 0 c45 0 83 1 83 3 0 17 -48 125 -81 181 -88 149 -233 265 -406 325 -73
24 -227 35 -316 21z"/>
<path d="M13594 5726 c-3 -7 -4 -42 -2 -77 l3 -64 191 -3 c144 -2 195 -6 203
-16 8 -9 12 -209 13 -662 l3 -649 70 0 70 0 3 658 c1 361 3 658 5 659 1 1 92
4 202 7 l200 6 3 63 c2 38 -2 69 -9 78 -17 20 -947 21 -955 0z"/>
<path d="M12536 5275 c-3 -9 -6 -50 -6 -90 0 -91 -5 -95 -124 -95 -62 0 -86
-4 -87 -12 -3 -44 5 -104 14 -110 7 -4 51 -8 98 -8 70 0 88 -3 93 -16 3 -9 6
-120 6 -247 0 -222 1 -234 24 -282 25 -55 74 -103 139 -137 31 -16 66 -23 129
-26 125 -6 135 -3 140 55 7 77 0 83 -92 83 -99 0 -122 9 -160 61 l-30 42 0
222 c0 158 3 224 12 233 7 7 45 12 99 12 96 0 106 5 107 60 2 68 0 70 -96 70
-48 0 -94 5 -102 10 -11 7 -16 34 -20 97 l-5 88 -66 3 c-54 2 -68 0 -73 -13z"/>
<path d="M9770 5111 c-20 -4 -57 -18 -83 -30 -45 -22 -49 -22 -66 -7 -14 13
-34 16 -82 14 l-64 -3 0 -415 0 -415 70 0 70 0 5 285 c6 324 10 345 83 403 39
30 45 32 127 32 79 0 88 -2 123 -29 44 -34 62 -64 81 -138 l13 -53 69 0 69 0
-2 69 c-1 37 -6 73 -12 79 -6 6 -11 18 -11 27 0 47 -101 141 -182 168 -47 16
-161 23 -208 13z"/>
<path d="M10608 5101 c-164 -56 -270 -179 -302 -350 -12 -64 -12 -86 -1 -152
31 -178 143 -301 326 -358 82 -26 218 -3 313 53 51 30 128 113 124 134 -2 8
-27 28 -57 44 l-55 29 -42 -44 c-61 -64 -111 -87 -190 -87 -77 0 -121 19 -182
80 -65 65 -111 192 -79 219 9 7 123 12 348 13 l334 3 -2 51 c-4 110 -93 250
-204 320 -95 60 -232 78 -331 45z m239 -154 c74 -47 131 -129 102 -148 -8 -5
-113 -8 -234 -6 l-220 2 -3 25 c-3 32 67 107 129 139 60 30 168 25 226 -12z"/>
<path d="M11610 5111 c-97 -19 -217 -103 -265 -185 -129 -220 -70 -503 132
-632 60 -39 113 -55 202 -61 89 -7 220 36 265 86 11 12 27 21 38 21 14 0 18
-8 18 -35 0 -42 20 -55 84 -55 83 0 76 -38 76 426 l0 415 -77 -3 c-84 -3 -78
1 -82 -60 -1 -22 -34 -24 -51 -3 -20 24 -92 62 -149 79 -56 16 -129 19 -191 7z
m229 -160 c51 -26 103 -79 134 -136 18 -33 22 -56 22 -135 0 -112 -18 -161
-85 -228 -57 -57 -117 -82 -195 -82 -214 0 -346 234 -251 445 27 58 58 93 113
128 50 31 72 36 153 33 43 -2 80 -11 109 -25z"/>
<path d="M15615 5115 c-5 -1 -30 -8 -55 -16 -25 -7 -53 -19 -62 -27 -17 -14
-58 -8 -58 9 0 6 -30 9 -72 7 l-73 -3 0 -415 0 -415 70 0 70 0 6 275 c6 284
12 330 51 379 39 51 77 66 165 66 76 0 84 -2 120 -31 46 -37 83 -98 83 -139 1
-50 10 -56 81 -53 l64 3 3 49 c4 55 -19 135 -50 181 -51 76 -177 136 -281 134
-29 0 -56 -2 -62 -4z"/>
<path d="M16460 5113 c-113 -24 -237 -123 -291 -231 -30 -62 -33 -76 -37 -183
-5 -126 7 -183 54 -264 92 -157 292 -240 459 -190 64 19 90 32 144 72 24 18
47 30 52 27 5 -3 9 -22 9 -44 0 -25 5 -40 16 -44 26 -10 122 -7 129 4 5 8 8
573 5 823 0 4 -33 7 -72 5 l-73 -3 -3 -35 c-5 -51 -17 -58 -50 -27 -15 15 -32
27 -37 27 -5 0 -16 6 -24 14 -40 37 -205 65 -281 49z m226 -161 c53 -27 110
-92 140 -159 84 -190 -60 -423 -262 -423 -113 0 -203 58 -254 164 -26 55 -30
75 -30 142 0 67 5 88 30 137 41 81 92 128 175 159 37 13 158 1 201 -20z"/>
<path d="M17451 5099 c-36 -11 -75 -27 -87 -36 -21 -13 -24 -13 -34 7 -10 19
-19 21 -83 18 l-72 -3 -3 -412 -2 -413 23 -5 c13 -4 48 -5 78 -3 l54 3 5 285
c5 295 7 310 51 370 43 57 158 85 249 60 53 -15 106 -63 126 -117 16 -41 19
-90 24 -323 l5 -275 70 0 70 0 3 270 c3 287 -2 336 -43 416 -27 54 -43 73 -95
111 -84 63 -230 83 -339 47z"/>
<path d="M14490 4797 c0 -321 4 -353 60 -430 146 -201 448 -173 554 53 l31 65
0 300 0 300 -75 0 -75 0 -5 -300 c-5 -291 -6 -301 -28 -337 -33 -52 -79 -78
-140 -78 -69 0 -114 28 -143 88 -22 45 -23 57 -24 327 0 154 -4 286 -8 293 -5
8 -33 12 -78 12 l-69 0 0 -293z"/>
<path d="M15745 3855 c-5 -1 -37 -10 -70 -20 -339 -95 -593 -411 -626 -776 -9
-111 2 -293 21 -329 5 -10 10 -26 10 -35 0 -17 10 -43 52 -135 67 -145 205
-301 340 -382 42 -26 119 -62 170 -79 81 -28 109 -33 220 -37 69 -2 146 1 170
6 110 27 134 35 197 63 96 45 188 109 252 176 73 77 132 160 126 177 -3 8 -68
51 -144 96 l-138 81 -37 -43 c-21 -24 -38 -46 -38 -50 0 -13 -126 -101 -180
-126 -49 -23 -68 -26 -175 -26 -120 0 -120 0 -200 39 -202 100 -316 307 -301
545 9 153 62 271 169 375 192 187 474 186 663 -2 35 -34 74 -80 89 -102 17
-27 33 -41 48 -42 25 -1 318 0 330 0 20 2 -4 80 -50 166 -9 17 -21 39 -27 50
-27 50 -101 138 -173 206 -82 76 -222 159 -308 180 -22 6 -56 14 -75 19 -32 9
-291 13 -315 5z"/>
<path d="M7885 3818 c-3 -13 -4 -405 -3 -873 l3 -850 430 0 c482 0 474 -1 640
75 164 76 324 233 405 400 12 25 25 52 29 60 19 37 50 162 60 245 20 153 -13
324 -90 480 -108 217 -298 373 -551 454 -73 23 -209 31 -560 31 l-358 0 -5
-22z m831 -334 c184 -60 313 -184 375 -361 28 -81 29 -235 1 -318 -63 -188
-205 -321 -394 -368 -84 -21 -446 -25 -466 -5 -9 9 -12 141 -12 533 0 287 3
525 7 528 3 4 104 7 223 7 171 0 227 -3 266 -16z"/>
<path d="M9626 3824 c-10 -27 -7 -1722 4 -1729 10 -6 1131 -7 1137 -1 2 2 5
74 6 160 2 122 -1 157 -11 161 -8 3 -186 5 -397 5 -370 0 -385 1 -395 19 -15
29 -13 414 2 429 9 9 104 12 364 12 l352 0 6 23 c3 12 6 78 6 147 0 69 -3 135
-6 148 l-6 22 -353 0 c-289 0 -355 3 -364 14 -8 9 -11 55 -9 137 l3 124 397 5
c218 3 399 8 403 11 8 9 8 306 0 319 -4 6 -208 10 -570 10 -504 0 -563 -2
-569 -16z"/>
<path d="M10942 3828 c-9 -9 -12 -213 -12 -870 l0 -858 23 -8 c12 -4 87 -5
167 -2 l145 5 3 384 c2 293 5 387 15 393 6 4 168 8 359 8 325 0 348 1 357 18
5 10 10 78 10 152 0 74 -5 142 -10 152 -9 17 -32 18 -357 18 -191 0 -353 4
-360 8 -9 7 -12 41 -10 138 l3 129 400 5 400 5 0 165 0 165 -560 3 c-428 2
-564 -1 -573 -10z"/>
<path d="M12237 3833 c-4 -3 -7 -397 -7 -875 l0 -868 570 0 570 0 -2 163 -3
162 -389 3 c-267 1 -393 6 -403 13 -19 16 -19 422 0 438 9 7 127 12 368 13
l354 3 3 168 2 167 -359 0 c-294 0 -361 3 -370 14 -8 9 -11 55 -9 137 l3 124
400 5 400 5 0 165 0 165 -561 3 c-308 1 -564 -1 -567 -5z"/>
<path d="M13542 3832 c-10 -7 -12 -188 -10 -873 l3 -864 168 -3 167 -2 0 509
c0 280 3 516 6 525 3 9 11 16 18 16 6 -1 109 -164 229 -363 120 -199 262 -434
316 -522 l98 -160 174 0 174 0 3 859 c1 626 -1 862 -9 872 -9 11 -48 14 -165
14 -87 0 -155 -4 -159 -10 -3 -5 -5 -232 -5 -505 0 -272 -2 -506 -6 -520 -3
-14 -11 -25 -18 -25 -6 0 -91 134 -190 298 -256 425 -441 729 -456 747 -10 12
-41 15 -169 15 -86 0 -162 -4 -169 -8z"/>
<path d="M16837 3833 c-4 -3 -7 -397 -7 -875 l0 -868 585 0 585 0 0 165 0 165
-409 0 c-364 0 -410 2 -415 16 -12 31 -7 419 6 432 9 9 104 12 365 12 l353 0
-2 168 -3 167 -349 3 c-242 1 -353 6 -363 14 -10 8 -13 40 -11 137 l3 126 413
3 412 2 0 170 0 170 -578 0 c-318 0 -582 -3 -585 -7z"/>
</g>
</svg>
