<?xml version="1.0" encoding="UTF-8"?>
<!DOCTYPE svg PUBLIC "-//W3C//DTD SVG 1.1//EN" "http://www.w3.org/Graphics/SVG/1.1/DTD/svg11.dtd">
<!-- Creator: CorelDRAW -->
<svg xmlns="http://www.w3.org/2000/svg" xml:space="preserve" width="210mm" height="210mm" version="1.1" style="shape-rendering:geometricPrecision; text-rendering:geometricPrecision; image-rendering:optimizeQuality; fill-rule:evenodd; clip-rule:evenodd"
viewBox="0 0 21000 21000"
 xmlns:xlink="http://www.w3.org/1999/xlink"
 xmlns:xodm="http://www.corel.com/coreldraw/odm/2003">
 <defs>
  <style type="text/css">
   <![CDATA[
    .fil0 {fill:#FEFEFE}
    .fil1 {fill:#FEFEFE;fill-rule:nonzero}
   ]]>
  </style>
 </defs>
 <g id="Слой_x0020_1">
  <metadata id="CorelCorpID_0Corel-Layer"/>
  <g id="_2805507202544">
   <g>
    <path class="fil0" d="M3812.31 11953.69l-9.31 -8.35 -12.64 -15.9c-11.73,0 -8.82,2.95 -8.82,-8.75 -32.48,-26.59 -87.23,-97.09 -98.16,-125.29 -12.18,0 -8.55,-2.88 -9.85,9.8 20.36,229.76 20.99,332.45 104.83,531.77 33.1,78.71 66.15,141.18 102.29,216.32l119.1 203.5c-32.94,-5.81 -220.9,-114.7 -254.36,-138.08 -83.78,-58.54 -143.98,-115.55 -205.39,-183.55 -113.05,-125.2 -225.59,-283.65 -265.93,-504.12 -60.39,-330.02 12.21,-658.64 197.53,-917.58 92.19,-128.81 111.21,-123.47 176.85,-204.02l8.36 -7.8 136.11 -104.93c43.56,-29.89 97.41,-62.02 145.51,-87.51 78.11,-41.41 256.17,-105.8 358.12,-117.29 -17.89,25.02 -50.41,33.42 -87.03,69.24 -26.89,26.3 -43.65,35.09 -79.12,68.65 -153.53,145.23 -253.85,393.7 -285.75,609.13 -38.03,256.74 23.87,519.97 155.13,728.88 52.82,84.08 126.63,149.08 131.94,165.89l-172.56 -78.84c-57.19,-32.51 -100.3,-67.57 -146.85,-101.17zm590.78 -3573.07l-7.66 19.35 -16.24 -8.44c-44.6,-3.2 -109.74,-24.38 -157.71,-36.18 -55.25,-13.59 -110.07,-17.78 -164.89,-28.54 32.41,-76.74 51.11,-135.97 88.26,-209.41 33.32,-65.89 108.42,-172.96 157.27,-224.24 56.18,-58.98 222.41,-225.16 287.29,-233l-108.19 350.11c-24.97,88.47 -80.09,279.4 -78.13,370.35zm-512.83 1714.78l-8.74 -8.22c-152.01,-4.55 -391.9,32.91 -527.42,77.45 -255.28,83.9 -314.73,169.78 -389.37,208.9 -10.27,8.45 12.99,10.21 -12.34,6.47 -0.12,-0.49 -7.73,-2.9 2.51,-28.23 23.56,-82.47 37.09,-153.64 65.16,-233.3 25.79,-73.18 56.99,-141.69 93.12,-202.41 74.52,-125.22 161.46,-260.19 263.62,-333.21l-9.95 -9.88c-100.88,10.93 -284.52,120.27 -352.88,166.04 -330.74,221.44 -509.5,623.99 -530.96,1016.09 -27.28,498.33 135.86,1003.53 417.31,1394.47l111.32 144.83c-86.7,-12.45 -384.44,-240.18 -462.75,-314.45 -377.37,-357.92 -601.34,-832.99 -482.66,-1377.44 38.77,-177.8 102.22,-230.44 115.96,-266.48 -89.95,31.24 -180.78,128.03 -246.45,190.91 -136.89,131.1 -164.67,229.43 -185.67,251.17 -2.24,-333.16 260.72,-817.48 386.93,-1006.59 143.02,-214.31 298.63,-382.99 483.54,-558.1l179.65 -159.26c-131.41,7.16 -333.35,70.74 -452.68,111.59 -67.45,23.09 -141.06,50.66 -199.9,80.19l-139.86 69.67c-22.82,12.69 -21.37,17.05 -47.25,26.95 26.32,-57.08 201.38,-214.96 246.26,-255.74 191.43,-173.95 359.55,-281.23 574.63,-420.37 96,-62.1 216.74,-126.94 320.54,-176.83 39.79,-19.12 44.55,-21.02 65.94,-58.43 102.85,-179.95 245.31,-335.4 384.27,-486.65 113.44,-123.47 434,-390.59 559.35,-432.43 -38.27,259.72 -181.63,773.76 -135.08,1027.07 41.4,-23.1 46.82,-88.12 69.49,-123.2 137.18,31.47 544.1,156.02 651,218.73 158.64,93.05 125.2,86.22 239.18,196.24 86.35,83.34 185.36,276.29 250.66,394.51 37.67,68.21 47.36,66.97 109.07,108.75l764.99 523.51c0.54,143.56 -316.91,453.54 -440.72,535.65 -76.37,50.65 -101.25,33.85 -185.14,-0.69 -155.03,-63.86 -403.91,-129.45 -570.15,-152.59 -338.4,-47.09 -541.44,-54.02 -855.26,51.15 -206.81,69.3 -380.62,169.62 -539.7,307.55 -42,36.41 -26.94,41.29 -64.02,57.45 31.94,-188.55 320.09,-526.25 484.45,-560.84zm-2707.74 138.94c12.94,204.17 32.17,431.16 92.97,616.57 59.62,181.79 124.9,355.58 208.36,507.36 44.78,81.45 84.15,153.6 132.11,225.22l306.53 408.64c56.11,65.92 111.99,127.93 168.11,189.88 57,62.93 129.39,112.82 182.58,174.97 82.84,96.8 498.18,408.67 597.1,475.93 289.2,196.63 568.08,356.27 902.07,529.12 47.78,24.73 81.06,-8.84 121.67,-29.26 195.04,-98.04 385.86,-209.69 570.2,-324.3 199.07,-123.77 500.52,-337.93 678.47,-487.89l140.42 -123.47c61.39,-59.5 119.06,-104.74 186.24,-171.68 63.97,-63.75 119.25,-122.24 171.9,-186.06 55.24,-66.97 107.62,-124.95 161.74,-195.61 202.48,-264.35 383.13,-610.56 483.83,-946.95 164.17,-548.36 118.05,-751.66 119.44,-1307.87l0.61 -1788.44c-0.23,-195.04 28.9,-155.48 -139.31,-215.65 -1570.55,-561.77 -3309.11,-565.95 -4885.28,-6.18 -222.68,79.08 -203.55,53.4 -202.17,151.74 1.68,118.94 -0.46,238.72 -0.33,357.8l0.22 1430.75c0,227.77 -11.65,491.8 2.52,715.38z"/>
    <path class="fil0" d="M4978.87 9345.8c-71.49,-15.31 -151.27,-27.05 -227.91,-32.74 -64.72,-4.81 -60,5.22 -104.58,-29.17l-229.45 -151.61c-124.54,-85.74 -115.58,-47.73 -176.69,-78.64 132.72,-11.79 348.64,14.87 470.57,49.19 141.93,39.95 122.55,31.32 161.63,95.14l106.43 147.83zm-1612.02 227.17l21.66 -7.51 -11.71 17.39c-102.16,73.02 -189.1,207.99 -263.62,333.21 -36.13,60.72 -67.33,129.23 -93.12,202.41 -28.07,79.66 -41.6,150.83 -65.16,233.3 -0.09,35.31 -3.16,16.35 9.83,21.76 74.64,-39.12 134.09,-125 389.37,-208.9 135.52,-44.54 375.41,-82 527.42,-77.45l19.47 -7.7c4.11,34.25 3.79,7.4 -10.73,15.92 -164.36,34.59 -452.51,372.29 -484.45,560.84 37.08,-16.16 22.02,-21.04 64.02,-57.45 159.08,-137.93 332.89,-238.25 539.7,-307.55 313.82,-105.17 516.86,-98.24 855.26,-51.15 166.24,23.14 415.12,88.73 570.15,152.59 83.89,34.54 108.77,51.34 185.14,0.69 123.81,-82.11 441.26,-392.09 440.72,-535.65l-764.99 -523.51c-61.71,-41.78 -71.4,-40.54 -109.07,-108.75 -65.3,-118.22 -164.31,-311.17 -250.66,-394.51 -113.98,-110.02 -80.54,-103.19 -239.18,-196.24 -106.9,-62.71 -513.82,-187.26 -651,-218.73 -22.67,35.08 -28.09,100.1 -69.49,123.2 -46.55,-253.31 96.81,-767.35 135.08,-1027.07 -125.35,41.84 -445.91,308.96 -559.35,432.43 -138.96,151.25 -281.42,306.7 -384.27,486.65 -21.39,37.41 -26.15,39.31 -65.94,58.43 -103.8,49.89 -224.54,114.73 -320.54,176.83 -215.08,139.14 -383.2,246.42 -574.63,420.37 -44.88,40.78 -219.94,198.66 -246.26,255.74 25.88,-9.9 24.43,-14.26 47.25,-26.95l139.86 -69.67c58.84,-29.53 132.45,-57.1 199.9,-80.19 119.33,-40.85 321.27,-104.43 452.68,-111.59l-179.65 159.26c-184.91,175.11 -340.52,343.79 -483.54,558.1 -126.21,189.11 -389.17,673.43 -386.93,1006.59 21,-21.74 48.78,-120.07 185.67,-251.17 65.67,-62.88 156.5,-159.67 246.45,-190.91 -13.74,36.04 -77.19,88.68 -115.96,266.48 -118.68,544.45 105.29,1019.52 482.66,1377.44 78.31,74.27 376.05,302 462.75,314.45l-111.32 -144.83c-281.45,-390.94 -444.59,-896.14 -417.31,-1394.47 21.46,-392.1 200.22,-794.65 530.96,-1016.09 68.36,-45.77 252,-155.11 352.88,-166.04z"/>
    <path class="fil0" d="M1182.52 10234.34c-14.17,-223.58 -2.52,-487.61 -2.52,-715.38l-0.22 -1430.75c-0.13,-119.08 2.01,-238.86 0.33,-357.8 -1.38,-98.34 -20.51,-72.66 202.17,-151.74 1576.17,-559.77 3314.73,-555.59 4885.28,6.18 168.21,60.17 139.08,20.61 139.31,215.65l-0.61 1788.44c-1.39,556.21 44.73,759.51 -119.44,1307.87 -100.7,336.39 -281.35,682.6 -483.83,946.95 -54.12,70.66 -106.5,128.64 -161.74,195.61 -52.65,63.82 -107.93,122.31 -171.9,186.06 -67.18,66.94 -124.85,112.18 -186.24,171.68l-140.42 123.47c-177.95,149.96 -479.4,364.12 -678.47,487.89 -184.34,114.61 -375.16,226.26 -570.2,324.3 -40.61,20.42 -73.89,53.99 -121.67,29.26 -333.99,-172.85 -612.87,-332.49 -902.07,-529.12 -98.92,-67.26 -514.26,-379.13 -597.1,-475.93 -53.19,-62.15 -125.58,-112.04 -182.58,-174.97 -56.12,-61.95 -112,-123.96 -168.11,-189.88l-306.53 -408.64c-47.96,-71.62 -87.33,-143.77 -132.11,-225.22 -83.46,-151.78 -148.74,-325.57 -208.36,-507.36 -60.8,-185.41 -80.03,-412.4 -92.97,-616.57zm794.85 2231.93l7.67 7.67c272.35,269.19 515.46,455.93 846.82,677.29 268.42,179.31 435.42,272.92 722.95,420.47 42.06,21.58 222.67,123.16 256.03,120.51 68.87,-5.45 822.02,-446.01 971.71,-551.88 77.09,-54.53 149.84,-103.55 223.44,-157.49l529.26 -427.39c59.96,-61.22 126.73,-111.28 193.39,-187.22 261.29,-297.72 331.87,-359.22 572.04,-765.52 191.23,-323.53 341.35,-760.13 383.67,-1149.02 41.14,-377.92 29.34,-1085.71 28.94,-1494.59l-0.3 -1143.04c0.54,-121.25 7.63,-269.61 -0.86,-387.74 -129.04,-68.47 -815.62,-269.25 -991.66,-314.85 -642.51,-166.42 -1245.75,-247.74 -1931.17,-248.03 -797.92,-0.35 -1826.63,189.46 -2584.54,465.54 -72.7,26.49 -273.81,88.31 -323.86,119.61 -10.8,77.43 -1.25,2096.5 -1.87,2286.09 -0.77,236.08 -9.74,516.45 26.42,745.11 86.72,548.41 273.02,956.31 547.09,1358.59 101.01,148.27 217.17,292.48 334.41,427 57.23,65.66 123.44,143.56 190.42,198.89z"/>
    <path class="fil0" d="M3656.81 10801.64l-8.36 7.8c-65.64,80.55 -84.66,75.21 -176.85,204.02 -185.32,258.94 -257.92,587.56 -197.53,917.58 40.34,220.47 152.88,378.92 265.93,504.12 61.41,68 121.61,125.01 205.39,183.55 33.46,23.38 221.42,132.27 254.36,138.08l-119.1 -203.5c-36.14,-75.14 -69.19,-137.61 -102.29,-216.32 -83.84,-199.32 -84.47,-302.01 -104.83,-531.77 -9.34,-14.19 -7.69,0.08 -6.53,-22.86 28.2,8.37 6.1,1.65 16.38,13.06 10.93,28.2 65.68,98.7 98.16,125.29l8.82 8.75 12.64 15.9c12.03,0 9.31,-3.17 9.31,8.35 46.55,33.6 89.66,68.66 146.85,101.17l172.56 78.84c-5.31,-16.81 -79.12,-81.81 -131.94,-165.89 -131.26,-208.91 -193.16,-472.14 -155.13,-728.88 31.9,-215.43 132.22,-463.9 285.75,-609.13 35.47,-33.56 52.23,-42.35 79.12,-68.65 36.62,-35.82 69.14,-44.22 87.03,-69.24 -101.95,11.49 -280.01,75.88 -358.12,117.29 -48.1,25.49 -101.95,57.62 -145.51,87.51l-136.11 104.93z"/>
    <path class="fil0" d="M4379.19 8391.53c26.41,-4.21 7.7,6.49 23.9,-10.91 -1.96,-90.95 53.16,-281.88 78.13,-370.35l108.19 -350.11c-64.88,7.84 -231.11,174.02 -287.29,233 -48.85,51.28 -123.95,158.35 -157.27,224.24 -37.15,73.44 -55.85,132.67 -88.26,209.41 54.82,10.76 109.64,14.95 164.89,28.54 47.97,11.8 113.11,32.98 157.71,36.18z"/>
    <path class="fil0" d="M4978.87 9345.8l-106.43 -147.83c-39.08,-63.82 -19.7,-55.19 -161.63,-95.14 -121.93,-34.32 -337.85,-60.98 -470.57,-49.19 61.11,30.91 52.15,-7.1 176.69,78.64l229.45 151.61c44.58,34.39 39.86,24.36 104.58,29.17 76.64,5.69 156.42,17.43 227.91,32.74z"/>
    <path class="fil0" d="M3890.26 10095.4c14.52,-8.52 14.84,18.33 10.73,-15.92l-19.47 7.7 8.74 8.22z"/>
    <path class="fil0" d="M3673.53 11805.2c1.3,-12.68 -2.33,-9.8 9.85,-9.8 -10.28,-11.41 11.82,-4.69 -16.38,-13.06 -1.16,22.94 -2.81,8.67 6.53,22.86z"/>
    <path class="fil0" d="M2964.73 10373.53c-12.99,-5.41 -9.92,13.55 -9.83,-21.76 -10.24,25.33 -2.63,27.74 -2.51,28.23 25.33,3.74 2.07,1.98 12.34,-6.47z"/>
    <polygon class="fil0" points="3376.8,9582.85 3388.51,9565.46 3366.85,9572.97 "/>
    <path class="fil0" d="M4379.19 8391.53l16.24 8.44 7.66 -19.35c-16.2,17.4 2.51,6.7 -23.9,10.91z"/>
    <path class="fil0" d="M3812.31 11953.69c0,-11.52 2.72,-8.35 -9.31,-8.35l9.31 8.35z"/>
    <path class="fil0" d="M3790.36 11929.44l-8.82 -8.75c0,11.7 -2.91,8.75 8.82,8.75z"/>
    <polygon class="fil0" points="3656.81,10801.64 3648.45,10809.44 "/>
    <polygon class="fil0" points="1985.04,12473.94 1977.37,12466.27 "/>
   </g>
   <g>
    <path class="fil1" d="M7908.05 9210.75l0 516.47 415.7 0c35.27,0 68.44,-6.72 99.51,-20.15 31.08,-13.44 58.37,-31.91 81.88,-55.43 23.52,-23.51 41.99,-51.23 55.43,-83.14 13.44,-31.91 20.16,-65.5 20.16,-100.77 0,-35.28 -6.72,-68.45 -20.16,-99.52 -13.44,-31.07 -31.91,-58.37 -55.43,-81.88 -23.51,-23.51 -50.8,-41.99 -81.88,-55.43 -31.07,-13.43 -64.24,-20.15 -99.51,-20.15l-415.7 0zm335.08 -302.33c45.35,0 84.82,-16.79 118.41,-50.39 33.59,-33.59 50.39,-73.9 50.39,-120.93 0,-47.03 -16.8,-86.92 -50.39,-119.67 -33.59,-32.75 -73.06,-49.13 -118.41,-49.13l-335.08 0 0 340.12 335.08 0zm-637.41 1121.13l0 -1763.57 637.41 0c65.5,0 126.81,12.17 183.91,36.53 57.11,24.35 107.08,57.94 149.91,100.77 42.83,42.83 76.42,92.8 100.77,149.91 24.36,57.1 36.53,118.41 36.53,183.91 0,48.71 -7.13,95.32 -21.41,139.83 -14.28,44.51 -34.01,86.08 -59.21,124.71 75.58,50.39 136.05,116.31 181.4,197.77 45.35,81.46 68.02,170.9 68.02,268.32 0,77.26 -14.69,149.9 -44.09,217.92 -29.39,68.03 -69.28,127.65 -119.67,178.88 -50.39,51.23 -109.59,91.54 -177.61,120.93 -68.03,29.39 -140.67,44.09 -217.93,44.09l-718.03 0zm1386.32 -1007.76l302.33 0 0 619.77c0,62.15 10.92,109.18 32.75,141.09 21.84,31.91 48.71,47.87 80.62,47.87 31.91,0 58.79,-15.96 80.62,-47.87 21.84,-31.91 32.75,-78.94 32.75,-141.09l0 -619.77 302.33 0 0 619.77c0,57.11 -10.92,110.86 -32.75,161.24 -21.84,50.39 -51.65,94.48 -89.44,132.27 -37.79,37.79 -81.88,67.61 -132.27,89.44 -50.39,21.84 -104.13,32.75 -161.24,32.75 -57.11,0 -110.85,-10.91 -161.24,-32.75 -50.39,-21.83 -94.48,-51.65 -132.27,-89.44 -37.79,-37.79 -67.6,-81.88 -89.44,-132.27 -21.83,-50.38 -32.75,-104.13 -32.75,-161.24l0 -619.77zm2207.65 0l-657.56 1433.54 -332.56 0 196.51 -425.78 -461.05 -1007.76 332.56 0 294.77 644.97 294.77 -644.97 332.56 0zm134.18 0l302.33 0 0 619.77c0,62.15 10.92,109.18 32.75,141.09 21.84,31.91 48.71,47.87 80.62,47.87 31.91,0 58.79,-15.96 80.62,-47.87 21.84,-31.91 32.75,-78.94 32.75,-141.09l0 -619.77 302.33 0 0 619.77c0,57.11 -10.92,110.86 -32.75,161.24 -21.84,50.39 -51.65,94.48 -89.44,132.27 -37.79,37.79 -81.88,67.61 -132.27,89.44 -50.39,21.84 -104.13,32.75 -161.24,32.75 -57.11,0 -110.85,-10.91 -161.24,-32.75 -50.39,-21.83 -94.48,-51.65 -132.27,-89.44 -37.79,-37.79 -67.6,-81.88 -89.44,-132.27 -21.83,-50.38 -32.75,-104.13 -32.75,-161.24l0 -619.77zm1575.27 1007.76l-307.36 -312.4 0 312.4 -302.33 0 0 -1461.25 302.33 0 0 765.9 307.36 -312.41 423.26 0 -493.8 503.88 493.8 503.88 -423.26 0zm1114.23 -1461.25l0 -302.32 1156.4 0 0 302.32 -425.78 0 0 1461.25 -302.32 0 0 -1461.25 -428.3 0zm1028.57 453.49l302.33 0 0 619.77c0,62.15 10.92,109.18 32.75,141.09 21.84,31.91 48.71,47.87 80.62,47.87 31.91,0 58.79,-15.96 80.62,-47.87 21.84,-31.91 32.75,-78.94 32.75,-141.09l0 -619.77 302.33 0 0 619.77c0,57.11 -10.92,110.86 -32.75,161.24 -21.84,50.39 -51.65,94.48 -89.44,132.27 -37.79,37.79 -81.88,67.61 -132.27,89.44 -50.39,21.84 -104.13,32.75 -161.24,32.75 -57.11,0 -110.85,-10.91 -161.24,-32.75 -50.39,-21.83 -94.48,-51.65 -132.27,-89.44 -37.79,-37.79 -67.6,-81.88 -89.44,-132.27 -21.83,-50.38 -32.75,-104.13 -32.75,-161.24l0 -619.77zm1648.34 425.78c0,-77.26 -17.22,-133.53 -51.65,-168.8 -34.43,-35.27 -81.04,-52.91 -139.83,-52.91 -57.1,0 -102.87,17.64 -137.3,52.91 -34.44,35.27 -51.65,91.54 -51.65,168.8l0 581.98 -302.33 0 0 -1007.76 302.33 0 0 62.99c70.54,-60.47 161.24,-90.7 272.09,-90.7 122.61,0 221.71,37.37 297.29,112.11 75.58,74.75 113.37,188.54 113.37,341.38l-302.32 0zm373.52 78.1c0,-73.9 16.38,-142.76 49.13,-206.59 32.75,-63.82 76.84,-120.09 132.27,-168.8 55.42,-48.71 120.51,-86.92 195.25,-114.63 74.74,-27.71 154.1,-41.57 238.08,-41.57 85.66,0 165.86,13.86 240.6,41.57 74.75,27.71 139.83,65.92 195.26,114.63 55.42,48.71 99.09,104.98 131.01,168.8 31.91,63.83 47.86,132.69 47.86,206.59 0,73.9 -15.95,143.19 -47.86,207.85 -31.92,64.67 -75.59,120.93 -131.01,168.8 -55.43,47.87 -120.51,85.66 -195.26,113.37 -74.74,27.72 -154.94,41.57 -240.6,41.57 -83.98,0 -163.34,-13.85 -238.08,-41.57 -74.74,-27.71 -139.83,-65.5 -195.25,-113.37 -55.43,-47.87 -99.52,-104.13 -132.27,-168.8 -32.75,-64.66 -49.13,-133.95 -49.13,-207.85zm302.33 0c0,41.99 8.4,81.46 25.19,118.41 16.8,36.95 39.05,69.29 66.77,97 27.71,27.71 60.88,49.55 99.51,65.5 38.63,15.96 78.94,23.94 120.93,23.94 43.67,0 84.4,-7.98 122.19,-23.94 37.79,-15.95 70.55,-37.79 98.26,-65.5 27.71,-27.71 49.97,-60.05 66.76,-97 16.8,-36.95 25.2,-76.42 25.2,-118.41 0,-41.99 -8.4,-81.46 -25.2,-118.41 -16.79,-36.95 -39.05,-69.28 -66.76,-97 -27.71,-27.71 -60.47,-49.54 -98.26,-65.5 -37.79,-15.96 -78.52,-23.93 -122.19,-23.93 -41.99,0 -82.3,7.97 -120.93,23.93 -38.63,15.96 -71.8,37.79 -99.51,65.5 -27.72,27.72 -49.97,60.05 -66.77,97 -16.79,36.95 -25.19,76.42 -25.19,118.41zm1353.57 503.88l-302.33 0 0 -1007.76 302.33 0 0 62.99c75.58,-60.47 168.8,-90.7 279.65,-90.7 60.47,0 117.15,9.24 170.06,27.71 52.91,18.48 98.68,46.61 137.31,84.4 38.63,37.79 68.86,85.24 90.69,142.35 21.84,57.11 32.76,123.45 32.76,199.03l0 581.98 -302.33 0 0 -581.98c0,-77.26 -19.32,-133.53 -57.95,-168.8 -38.63,-35.27 -87.34,-52.91 -146.12,-52.91 -57.11,0 -105.4,17.64 -144.87,52.91 -39.47,35.27 -59.2,91.54 -59.2,168.8l0 581.98z"/>
    <path class="fil1" d="M7600.37 10627.27l327.75 0 409.69 1048.79 409.68 -1048.79 327.75 0 0 1638.74 -327.75 0 0 -737.43 -234.1 596.97 -351.16 0 -234.11 -596.97 0 737.43 -327.75 0 0 -1638.74zm2701.02 1102.64c0,76.47 -14.83,149.04 -44.48,217.72 -29.65,68.67 -69.84,128.36 -120.56,179.09 -50.73,50.72 -110.03,90.91 -177.92,120.56 -67.9,29.65 -140.86,44.48 -218.89,44.48 -76.48,0 -149.05,-14.83 -217.72,-44.48 -68.67,-29.65 -128.37,-69.84 -179.09,-120.56 -50.73,-50.73 -90.91,-110.42 -120.57,-179.09 -29.65,-68.68 -44.48,-141.25 -44.48,-217.72l0 -1102.64 327.75 0 0 1102.64c0,65.55 22.63,120.95 67.89,166.21 45.26,45.26 100.67,67.89 166.22,67.89 65.55,0 120.95,-22.63 166.21,-67.89 45.26,-45.26 67.89,-100.66 67.89,-166.21l0 -1102.64 327.75 0 0 1102.64zm430.19 -774.89l0 983.24 320.73 0c68.67,0 132.66,-12.87 191.96,-38.63 59.31,-25.75 111.2,-60.86 155.68,-105.34 44.48,-44.48 79.6,-96.77 105.35,-156.85 25.75,-60.09 38.63,-123.69 38.63,-190.8 0,-68.67 -12.88,-132.66 -38.63,-191.97 -25.75,-59.3 -60.87,-111.2 -105.35,-155.68 -44.48,-44.48 -96.37,-79.59 -155.68,-105.35 -59.3,-25.75 -123.29,-38.62 -191.96,-38.62l-320.73 0zm-327.75 1310.99l0 -1638.74 648.48 0c112.37,0 218.49,21.46 318.38,64.38 99.88,42.92 186.89,101.44 261.03,175.58 74.13,74.13 132.66,161.14 175.58,261.02 42.92,99.89 64.38,206.02 64.38,318.39 0,112.37 -21.46,218.5 -64.38,318.38 -42.92,99.89 -101.45,186.9 -175.58,261.03 -74.14,74.13 -161.15,132.66 -261.03,175.58 -99.89,42.92 -206.01,64.38 -318.38,64.38l-648.48 0zm1546.87 -819.37c0,-117.05 21.07,-226.69 63.21,-328.92 42.14,-102.23 99.5,-191.58 172.07,-268.05 72.57,-76.48 156.85,-136.95 252.83,-181.43 95.99,-44.48 198.6,-66.72 307.85,-66.72 110.81,0 214.21,22.24 310.19,66.72 95.99,44.48 180.26,104.95 252.84,181.43 72.57,76.47 129.54,165.82 170.89,268.05 41.36,102.23 62.04,211.87 62.04,328.92 0,117.05 -20.68,226.69 -62.04,328.92 -41.35,102.22 -98.32,191.57 -170.89,268.05 -72.58,76.47 -156.85,136.95 -252.84,181.43 -95.98,44.48 -199.38,66.72 -310.19,66.72 -109.25,0 -211.86,-22.24 -307.85,-66.72 -95.98,-44.48 -180.26,-104.96 -252.83,-181.43 -72.57,-76.48 -129.93,-165.83 -172.07,-268.05 -42.14,-102.23 -63.21,-211.87 -63.21,-328.92zm337.11 -2.34c0,70.23 12.1,136.56 36.29,198.99 24.19,62.43 56.97,116.27 98.33,161.53 41.35,45.26 90.13,81.16 146.31,107.69 56.19,26.53 115.49,39.8 177.92,39.8 63.99,0 123.69,-13.27 179.09,-39.8 55.41,-26.53 103.79,-62.43 145.15,-107.69 41.36,-45.26 74.13,-99.1 98.32,-161.53 24.19,-62.43 36.29,-128.76 36.29,-198.99 0,-70.23 -12.1,-135.78 -36.29,-196.65 -24.19,-60.87 -56.96,-113.93 -98.32,-159.19 -41.36,-45.26 -89.74,-81.16 -145.15,-107.69 -55.4,-26.53 -115.1,-39.8 -179.09,-39.8 -62.43,0 -121.73,13.27 -177.92,39.8 -56.18,26.53 -104.96,62.43 -146.31,107.69 -41.36,45.26 -74.14,98.32 -98.33,159.19 -24.19,60.87 -36.29,126.42 -36.29,196.65zm1696.7 84.28l0 737.43 -327.75 0 0 -1638.74 1076.89 0 0 327.75 -749.14 0 0 245.81 678.91 0 0 327.75 -678.91 0zm1649.88 245.81l-250.5 -692.96 -250.49 692.96 500.99 0zm-620.38 327.75l-58.53 163.87 -327.75 0 592.29 -1638.74 327.75 0 592.29 1638.74 -327.75 0 -58.53 -163.87 -739.77 0zm2246.85 -327.75l-250.5 -692.96 -250.49 692.96 500.99 0zm-620.38 327.75l-58.53 163.87 -327.75 0 592.29 -1638.74 327.75 0 592.29 1638.74 -327.75 0 -58.53 -163.87 -739.77 0zm1752.88 189.62c-73.35,0 -145.53,-12.48 -216.55,-37.46 -71.01,-24.97 -134.22,-60.47 -189.62,-106.51 -55.41,-46.04 -100.67,-101.84 -135.78,-167.39 -35.12,-65.55 -52.68,-138.9 -52.68,-220.06l325.41 0c0,32.78 8.19,62.04 24.58,87.79 16.39,25.75 37.46,47.21 63.21,64.38 25.75,17.17 54.62,30.43 86.62,39.8 31.99,9.36 63.6,14.04 94.81,14.04 31.22,0 62.82,-4.68 94.81,-14.04 32,-9.37 60.87,-22.63 86.62,-39.8 25.75,-17.17 46.82,-38.63 63.21,-64.38 16.39,-25.75 24.58,-55.01 24.58,-87.79 0,-48.38 -18.73,-86.62 -56.18,-114.71 -37.46,-28.09 -84.67,-53.06 -141.64,-74.91 -56.96,-21.85 -118.61,-44.09 -184.94,-66.73 -66.33,-22.63 -127.98,-51.89 -184.94,-87.78 -56.97,-35.9 -104.18,-82.72 -141.64,-140.47 -37.46,-57.74 -56.18,-131.88 -56.18,-222.4 0,-68.67 14.04,-130.71 42.14,-186.11 28.09,-55.41 65.15,-103.01 111.2,-142.81 46.04,-39.8 99.1,-70.23 159.19,-91.3 60.09,-21.07 121.34,-31.6 183.77,-31.6 60.87,0 120.96,10.53 180.26,31.6 59.31,21.07 112.37,51.5 159.19,91.3 46.83,39.8 84.67,87.4 113.55,142.81 28.87,55.4 44.09,117.44 45.65,186.11l-325.41 0c-1.56,-40.58 -20.68,-71.79 -57.36,-93.64 -36.67,-21.85 -75.3,-32.78 -115.88,-32.78 -42.14,0 -80.77,10.93 -115.88,32.78 -35.12,21.85 -52.68,53.06 -52.68,93.64 0,39.02 18.73,70.23 56.19,93.64 37.46,23.41 84.28,45.26 140.46,65.55 56.19,20.29 117.45,42.14 183.78,65.55 66.33,23.41 127.58,55.02 183.77,94.82 56.19,39.79 103.01,90.52 140.46,152.16 37.46,61.65 56.19,140.08 56.19,235.28 0,81.16 -17.17,154.51 -51.5,220.06 -34.34,65.55 -79.6,121.35 -135.79,167.39 -56.18,46.04 -119.39,81.54 -189.62,106.51 -70.23,24.98 -142.03,37.46 -215.38,37.46zm732.18 -1664.49l327.75 0 0 1638.74 -327.75 0 0 -1638.74z"/>
   </g>
  </g>
 </g>
</svg>
