<?xml version="1.0" encoding="UTF-8"?>
<svg id="_Слой_1" data-name="Слой 1" xmlns="http://www.w3.org/2000/svg" viewBox="0 0 380.91 176.39">
  <defs>
    <style>
      .cls-1 {
        fill-rule: evenodd;
      }
    </style>
  </defs>
  <path class="cls-1" d="M106.02,64.09c-1.85-.4-3.91-.7-5.89-.85-1.67-.12-1.55.14-2.7-.75l-5.93-3.92c-3.22-2.22-2.99-1.23-4.57-2.03,3.43-.3,9.01.38,12.16,1.27,3.67,1.03,3.17.81,4.18,2.46l2.75,3.82ZM64.37,69.96l.56-.19-.3.45c-2.64,1.89-4.89,5.37-6.81,8.61-.93,1.57-1.74,3.34-2.41,5.23-.73,2.06-1.08,3.9-1.68,6.03,0,.91-.08.42.25.56,1.93-1.01,3.46-3.23,10.06-5.4,3.5-1.15,9.7-2.12,13.63-2l.5-.2c.11.88.1.19-.28.41-4.25.89-11.69,9.62-12.52,14.49.96-.42.57-.54,1.65-1.48,4.11-3.56,8.6-6.16,13.95-7.95,8.11-2.72,13.35-2.54,22.1-1.32,4.3.6,10.73,2.29,14.73,3.94,2.17.89,2.81,1.33,4.78.02,3.2-2.12,11.4-10.13,11.39-13.84l-19.77-13.53c-1.59-1.08-1.84-1.05-2.82-2.81-1.69-3.05-4.25-8.04-6.48-10.19-2.95-2.84-2.08-2.67-6.18-5.07-2.76-1.62-13.28-4.84-16.82-5.65-.59.91-.73,2.59-1.8,3.18-1.2-6.55,2.5-19.83,3.49-26.54-3.24,1.08-11.52,7.98-14.45,11.17-3.59,3.91-7.27,7.92-9.93,12.57-.55.97-.68,1.02-1.7,1.51-2.68,1.29-5.8,2.96-8.28,4.57-5.56,3.6-9.9,6.37-14.85,10.86-1.16,1.05-5.68,5.13-6.36,6.61.67-.26.63-.37,1.22-.7l3.61-1.8c1.52-.76,3.42-1.48,5.17-2.07,3.08-1.06,8.3-2.7,11.7-2.88l-4.64,4.12c-4.78,4.52-8.8,8.88-12.49,14.42-3.26,4.89-10.06,17.4-10,26.01.54-.56,1.26-3.1,4.8-6.49,1.7-1.62,4.04-4.13,6.37-4.93-.36.93-1.99,2.29-3,6.89-3.07,14.07,2.72,26.34,12.47,35.59,2.02,1.92,9.72,7.8,11.96,8.12l-2.88-3.74c-7.27-10.1-11.49-23.15-10.78-36.03.55-10.13,5.17-20.53,13.72-26.25,1.77-1.18,6.51-4.01,9.12-4.29h0Z"/>
  <path class="cls-1" d="M7.93,87.05c-.37-5.78-.07-12.6-.07-18.48V31.59c0-3.08.05-6.17,0-9.24-.04-2.54-.53-1.88,5.22-3.92,40.73-14.46,85.65-14.36,126.23.16,4.35,1.55,3.59.53,3.6,5.57l-.02,46.21c-.04,14.37,1.16,19.62-3.09,33.79-2.6,8.69-7.27,17.64-12.5,24.47-1.4,1.83-2.75,3.32-4.18,5.05-1.36,1.65-2.79,3.16-4.44,4.81-1.74,1.73-3.23,2.9-4.81,4.44l-3.63,3.19c-4.6,3.87-12.39,9.41-17.53,12.61-4.76,2.96-9.69,5.85-14.73,8.38-1.05.53-1.91,1.4-3.14.76-8.63-4.47-15.84-8.59-23.31-13.67-2.56-1.74-13.29-9.8-15.43-12.3-1.37-1.61-3.24-2.9-4.72-4.52-1.45-1.6-2.89-3.2-4.34-4.91l-7.92-10.56c-1.24-1.85-2.26-3.71-3.41-5.82-2.16-3.92-3.84-8.41-5.38-13.11-1.57-4.79-2.07-10.66-2.4-15.93h0ZM28.46,144.72l.2.2c7.04,6.96,13.32,11.78,21.88,17.5,6.94,4.63,11.25,7.05,18.68,10.86,1.09.56,5.75,3.18,6.62,3.11,1.78-.14,21.24-11.52,25.11-14.26,1.99-1.41,3.87-2.68,5.77-4.07l13.68-11.04c1.55-1.58,3.27-2.88,5-4.84,6.75-7.69,8.58-9.28,14.78-19.78,4.94-8.36,8.82-19.64,9.91-29.69,1.06-9.76.76-28.05.75-38.62v-29.53c0-3.13.19-6.97-.03-10.02-3.33-1.77-21.07-6.96-25.62-8.14C108.58,2.11,92.99,0,75.28,0,54.67,0,28.09,4.9,8.5,12.03c-1.88.68-7.07,2.28-8.37,3.09-.28,2-.03,54.17-.05,59.07-.02,6.1-.25,13.34.68,19.25,2.24,14.17,7.05,24.71,14.14,35.1,2.61,3.83,5.61,7.56,8.64,11.03,1.48,1.7,3.19,3.71,4.92,5.14h0Z"/>
  <path class="cls-1" d="M71.86,101.71l-.22.2c-1.7,2.08-2.19,1.94-4.57,5.27-4.79,6.69-6.66,15.18-5.1,23.71,1.04,5.7,3.95,9.79,6.87,13.03,1.59,1.76,3.14,3.23,5.31,4.74.86.6,5.72,3.42,6.57,3.57l-3.08-5.26c-.93-1.94-1.79-3.56-2.64-5.59-2.17-5.15-2.18-7.8-2.71-13.74-.24-.37-.2,0-.17-.59.73.22.16.04.42.34.28.73,1.7,2.55,2.54,3.24l.23.23.33.41c.31,0,.24-.08.24.22,1.2.87,2.32,1.77,3.79,2.61l4.46,2.04c-.14-.43-2.04-2.11-3.41-4.29-3.39-5.4-4.99-12.2-4.01-18.83.82-5.57,3.42-11.99,7.38-15.74.92-.87,1.35-1.09,2.04-1.77.95-.93,1.79-1.14,2.25-1.79-2.63.3-7.24,1.96-9.25,3.03-1.24.66-2.63,1.49-3.76,2.26l-3.52,2.71h0Z"/>
  <path class="cls-1" d="M90.52,39.43c.68-.11.2.17.62-.28-.05-2.35,1.37-7.28,2.02-9.57l2.8-9.05c-1.68.2-5.97,4.5-7.42,6.02-1.26,1.33-3.2,4.09-4.06,5.79-.96,1.9-1.44,3.43-2.28,5.41,1.42.28,2.83.39,4.26.74,1.24.3,2.92.85,4.08.93h0Z"/>
  <path class="cls-1" d="M86.93,56.54c1.58.8,1.35-.18,4.57,2.03l5.93,3.92c1.15.89,1.03.63,2.7.75,1.98.15,4.04.45,5.89.85"/>
  <path class="cls-1" d="M77.89,83.46c.38-.22.38.47.28-.41l-.5.2.23.21Z"/>
  <path class="cls-1" d="M53.98,90.64c-.34-.14-.26.35-.25-.56-.26.65-.07.72-.06.73.65.1.05.05.32-.17Z"/>
  <polygon class="cls-1" points="64.62 70.21 64.93 69.76 64.37 69.96 64.62 70.21"/>
  <path class="cls-1" d="M90.52,39.43l.42.22.2-.5c-.42.45.06.17-.62.28h0Z"/>
  <path class="cls-1" d="M71.86,101.71l-.22.2.22-.2Z"/>
  <path d="M181.97,74.1v-3.63h15.42c0,2.27-.4,4.39-1.2,6.37-.8,1.98-1.91,3.71-3.31,5.19-1.41,1.48-3.04,2.65-4.9,3.52-1.86.86-3.86,1.29-6.01,1.29s-4.11-.43-5.97-1.29c-1.86-.86-3.49-2.03-4.9-3.52-1.41-1.48-2.52-3.21-3.33-5.19-.82-1.98-1.23-4.11-1.23-6.37s.41-4.39,1.23-6.37c.82-1.98,1.93-3.71,3.33-5.19,1.41-1.48,3.04-2.65,4.9-3.52,1.86-.86,3.85-1.29,5.97-1.29,1.75,0,3.43.29,5.01.88,1.59.59,3.03,1.41,4.33,2.47,1.3,1.06,2.43,2.31,3.38,3.74.95,1.44,1.66,3.02,2.11,4.74h-3.9c-.42-1.18-.99-2.26-1.7-3.24-.71-.98-1.54-1.84-2.5-2.56-.95-.73-2-1.29-3.13-1.68s-2.34-.59-3.61-.59c-1.6,0-3.11.33-4.51,1-1.41.67-2.64,1.57-3.7,2.7-1.06,1.13-1.9,2.47-2.52,3.99-.62,1.53-.93,3.15-.93,4.88s.31,3.4.93,4.92c.62,1.53,1.46,2.86,2.52,3.99,1.06,1.13,2.29,2.03,3.7,2.7,1.41.67,2.91,1,4.51,1,1.33,0,2.59-.23,3.79-.68,1.2-.45,2.28-1.07,3.27-1.86.98-.79,1.83-1.72,2.54-2.81.71-1.09,1.25-2.28,1.61-3.58h-11.21ZM212.46,75.87c0-1.72-.39-2.98-1.16-3.77-.77-.79-1.81-1.18-3.11-1.18s-2.34.39-3.11,1.18c-.77.79-1.16,2.04-1.16,3.77v10.48h-3.63v-18.15h3.63v1c1.24-1,2.83-1.5,4.76-1.5,2.21,0,3.99.67,5.35,2.02,1.36,1.35,2.04,3.39,2.04,6.15h-3.63ZM232.2,74.55c-.45-1.06-1.13-1.93-2.04-2.61-.91-.68-1.94-1.02-3.08-1.02s-2.12.34-3.02,1.02c-.89.68-1.56,1.55-2.02,2.61h10.16ZM227.08,86.85c-1.27,0-2.46-.25-3.56-.75-1.1-.5-2.08-1.18-2.93-2.04-.85-.86-1.51-1.88-2-3.04-.48-1.16-.73-2.41-.73-3.74s.24-2.57.73-3.72,1.15-2.16,2-3.04,1.82-1.57,2.93-2.06c1.1-.5,2.29-.75,3.56-.75s2.47.25,3.61.75c1.13.5,2.12,1.19,2.95,2.06.83.88,1.49,1.89,1.97,3.04.48,1.15.73,2.39.73,3.72h-14.83c0,.88.14,1.7.43,2.47.29.77.69,1.44,1.2,2.02.51.57,1.11,1.03,1.79,1.36.68.33,1.4.5,2.15.5,1.06,0,2-.26,2.81-.79.82-.53,1.47-1.25,1.95-2.15l3.13,1.63c-.82,1.36-1.91,2.46-3.29,3.29-1.38.83-2.91,1.25-4.6,1.25ZM242.23,77.28c0,.91.15,1.75.45,2.52.3.77.72,1.44,1.25,2.02.53.57,1.15,1.02,1.86,1.34.71.32,1.49.48,2.34.48s1.59-.17,2.31-.5c.73-.33,1.35-.79,1.88-1.36.53-.57.95-1.25,1.27-2.02.32-.77.48-1.6.48-2.47s-.16-1.7-.48-2.47c-.32-.77-.74-1.44-1.27-2.02-.53-.57-1.16-1.03-1.88-1.36-.73-.33-1.5-.5-2.31-.5s-1.63.16-2.34.48c-.71.32-1.33.76-1.86,1.34-.53.57-.95,1.25-1.25,2.02-.3.77-.45,1.61-.45,2.52ZM247.68,86.85c-1.3,0-2.5-.24-3.61-.73-1.1-.48-2.06-1.16-2.88-2.02-.82-.86-1.45-1.88-1.91-3.04-.45-1.16-.68-2.43-.68-3.79s.23-2.62.68-3.79c.45-1.16,1.09-2.18,1.91-3.04.82-.86,1.78-1.53,2.88-2.02,1.1-.48,2.31-.73,3.61-.73s2.45.24,3.54.73c1.09.48,2.04,1.16,2.86,2.04v-2.27h3.63v18.15h-3.63v-2.27c-.82.88-1.77,1.56-2.86,2.04-1.09.48-2.27.73-3.54.73ZM260.61,71.38v-3.18h4.54v-4.08h3.63v4.08h4.54v3.18h-4.54v9.07c0,.76.26,1.4.79,1.93.53.53,1.17.79,1.93.79h3.18v3.18h-3.63c-.82,0-1.58-.15-2.29-.45-.71-.3-1.34-.73-1.88-1.27-.54-.54-.97-1.17-1.27-1.88-.3-.71-.45-1.47-.45-2.29v-9.07h-4.54,0ZM287.61,58.22v-3.63h20.82v3.63h-8.57v28.13h-3.63v-28.13h-8.62ZM306.62,68.2h3.63v11.61c0,1.15.32,2.08.98,2.79.65.71,1.46,1.07,2.43,1.07s1.78-.36,2.43-1.07c.65-.71.98-1.64.98-2.79v-11.61h3.63v11.61c0,.97-.18,1.88-.54,2.74-.36.86-.86,1.61-1.5,2.25-.64.64-1.38,1.13-2.25,1.5-.86.36-1.78.54-2.74.54s-1.88-.18-2.74-.54c-.86-.36-1.61-.86-2.25-1.5-.64-.64-1.13-1.38-1.5-2.25-.36-.86-.54-1.78-.54-2.74v-11.61ZM335.75,75.87c0-1.72-.39-2.98-1.16-3.77-.77-.79-1.81-1.18-3.11-1.18s-2.34.39-3.11,1.18c-.77.79-1.16,2.04-1.16,3.77v10.48h-3.63v-18.15h3.63v1c1.24-1,2.83-1.5,4.76-1.5,2.21,0,3.99.67,5.35,2.02,1.36,1.35,2.04,3.39,2.04,6.15h-3.63ZM344.83,77.28c0,.91.15,1.75.45,2.52.3.77.72,1.44,1.25,2.02.53.57,1.15,1.02,1.86,1.34.71.32,1.49.48,2.34.48s1.59-.17,2.31-.5c.73-.33,1.35-.79,1.88-1.36.53-.57.95-1.25,1.27-2.02.32-.77.48-1.6.48-2.47s-.16-1.7-.48-2.47c-.32-.77-.74-1.44-1.27-2.02-.53-.57-1.16-1.03-1.88-1.36-.73-.33-1.5-.5-2.31-.5s-1.63.16-2.34.48c-.71.32-1.33.76-1.86,1.34-.53.57-.95,1.25-1.25,2.02-.3.77-.45,1.61-.45,2.52ZM350.27,86.85c-1.3,0-2.5-.24-3.61-.73-1.1-.48-2.06-1.16-2.88-2.02-.82-.86-1.45-1.88-1.91-3.04-.45-1.16-.68-2.43-.68-3.79s.23-2.62.68-3.79c.45-1.16,1.09-2.18,1.91-3.04.82-.86,1.78-1.53,2.88-2.02,1.1-.48,2.31-.73,3.61-.73s2.45.24,3.54.73,2.04,1.16,2.86,2.04v-2.27h3.63v18.15h-3.63v-2.27c-.82.88-1.77,1.56-2.86,2.04-1.09.48-2.27.73-3.54.73ZM367.06,86.35h-3.63v-18.15h3.63v1.13c1.36-1.09,3.04-1.63,5.04-1.63,1.09,0,2.11.17,3.06.5.95.33,1.78.84,2.47,1.52.7.68,1.24,1.53,1.63,2.56.39,1.03.59,2.22.59,3.58v10.48h-3.63v-10.48c0-1.72-.43-2.98-1.29-3.77-.86-.79-1.96-1.18-3.29-1.18s-2.35.39-3.24,1.18c-.89.79-1.34,2.04-1.34,3.77v10.48h0Z"/>
  <path d="M174.31,102.3v22.53h7.35c1.57,0,3.04-.29,4.4-.88,1.36-.59,2.55-1.39,3.57-2.41s1.82-2.22,2.41-3.59c.59-1.38.88-2.83.88-4.37s-.3-3.04-.88-4.4c-.59-1.36-1.39-2.55-2.41-3.57-1.02-1.02-2.21-1.82-3.57-2.41-1.36-.59-2.82-.89-4.4-.89h-7.35ZM166.8,132.33v-37.55h14.86c2.57,0,5.01.49,7.29,1.48,2.29.98,4.28,2.32,5.98,4.02,1.7,1.7,3.04,3.69,4.02,5.98.98,2.29,1.48,4.72,1.48,7.29s-.49,5.01-1.48,7.29c-.98,2.29-2.32,4.28-4.02,5.98-1.7,1.7-3.69,3.04-5.98,4.02-2.29.98-4.72,1.48-7.29,1.48h-14.86ZM211.15,115.44v9.39h17.16v7.51h-24.67v-37.55h24.67v7.51h-17.16v5.63h15.55v7.51h-15.55ZM238.83,115.44v16.9h-7.51v-37.55h24.67v7.51h-17.16v5.63h15.55v7.51h-15.55,0ZM266.24,115.44v9.39h17.16v7.51h-24.67v-37.55h24.67v7.51h-17.16v5.63h15.55v7.51h-15.55ZM286.41,94.79h7.51l13.95,23.01v-23.01h7.51v37.55h-7.51l-13.95-23.01v23.01h-7.51v-37.55ZM336.56,132.92c-2.5,0-4.85-.51-7.05-1.53-2.2-1.02-4.13-2.4-5.79-4.16-1.66-1.75-2.98-3.8-3.94-6.14-.97-2.34-1.45-4.85-1.45-7.54s.48-5.19,1.45-7.54c.97-2.34,2.28-4.39,3.94-6.14,1.66-1.75,3.59-3.14,5.79-4.16,2.2-1.02,4.55-1.53,7.05-1.53,2.07,0,4.05.35,5.93,1.05,1.88.7,3.58,1.67,5.12,2.92,1.54,1.25,2.87,2.73,4,4.42,1.13,1.7,1.96,3.57,2.49,5.61h-8.21c-.89-1.86-2.16-3.36-3.81-4.51-1.64-1.14-3.49-1.72-5.52-1.72-1.43,0-2.79.3-4.08.91-1.29.61-2.4,1.43-3.35,2.47-.95,1.04-1.7,2.25-2.25,3.65-.55,1.39-.83,2.9-.83,4.51s.28,3.13.83,4.56c.55,1.43,1.31,2.66,2.25,3.7.95,1.04,2.07,1.86,3.35,2.47,1.29.61,2.65.91,4.08.91,1.9,0,3.63-.5,5.2-1.5,1.57-1,2.83-2.34,3.75-4.02l6.65,3.97c-.79,1.39-1.73,2.66-2.84,3.81-1.11,1.14-2.33,2.13-3.67,2.95-1.34.82-2.78,1.46-4.32,1.9-1.54.45-3.13.67-4.77.67h0ZM363.75,115.44v9.39h17.16v7.51h-24.67v-37.55h24.67v7.51h-17.16v5.63h15.55v7.51h-15.55Z"/>
</svg>